<?xml version="1.0" encoding="UTF-8" standalone="no"?>
<svg
   xmlns:dc="http://purl.org/dc/elements/1.1/"
   xmlns:cc="http://creativecommons.org/ns#"
   xmlns:rdf="http://www.w3.org/1999/02/22-rdf-syntax-ns#"
   xmlns:svg="http://www.w3.org/2000/svg"
   xmlns="http://www.w3.org/2000/svg"
   xmlns:sodipodi="http://sodipodi.sourceforge.net/DTD/sodipodi-0.dtd"
   xmlns:inkscape="http://www.inkscape.org/namespaces/inkscape"
   width="20mm"
   height="20mm"
   viewBox="0 0 20 20"
   version="1.1"
   id="svg8"
   inkscape:version="1.0.1 (c497b03c, 2020-09-10)"
   sodipodi:docname="random.svg"
   inkscape:export-filename="/Users/olafneumann/git/github/noxone/group-randomizer/src/main/resources/icon/random_16.png"
   inkscape:export-xdpi="20.32"
   inkscape:export-ydpi="20.32">
  <defs
     id="defs2" />
  <sodipodi:namedview
     id="base"
     pagecolor="#ffffff"
     bordercolor="#666666"
     borderopacity="1.0"
     inkscape:pageopacity="0.0"
     inkscape:pageshadow="2"
     inkscape:zoom="3.1601517"
     inkscape:cx="14.775719"
     inkscape:cy="55.882589"
     inkscape:document-units="mm"
     inkscape:current-layer="layer1"
     inkscape:document-rotation="0"
     showgrid="false"
     inkscape:window-width="1248"
     inkscape:window-height="855"
     inkscape:window-x="26"
     inkscape:window-y="23"
     inkscape:window-maximized="0" />
  <metadata
     id="metadata5">
    <rdf:RDF>
      <cc:Work
         rdf:about="">
        <dc:format>image/svg+xml</dc:format>
        <dc:type
           rdf:resource="http://purl.org/dc/dcmitype/StillImage" />
        <dc:title></dc:title>
      </cc:Work>
    </rdf:RDF>
  </metadata>
  <g
     inkscape:label="Ebene 1"
     inkscape:groupmode="layer"
     id="layer1">
    <path
       style="fill:#8b0000;fill-opacity:1;stroke:none;stroke-width:0.0355587px;stroke-linecap:butt;stroke-linejoin:miter;stroke-opacity:1"
       d="m 0.36266553,14.043851 c 0,0.456383 -0.0521905,1.31366 0,2.133516 0.97099997,0.0033 1.91687537,0.0351 2.86735247,-0.06799 0.781531,-0.08477 1.5972733,-0.129859 2.314834,-0.450923 0.6593391,-0.29502 1.2473896,-0.769106 1.7263419,-1.309815 0.6239068,-0.704357 1.0152495,-1.589983 1.4223449,-2.438305 0.3001494,-0.625465 0.455316,-1.313083 0.746353,-1.9428404 C 9.69678,9.4116285 9.9389319,8.8345459 10.319074,8.3544744 10.763655,7.7930258 11.31012,7.29728 11.919577,6.9211921 12.618478,6.4899099 13.420008,6.235991 14.211744,6.0177662 c 0.492178,-0.135659 1.003441,-0.1967982 1.511425,-0.2477323 0.402058,-0.040315 1.211372,-0.045329 1.211372,-0.045329 0.01241,-0.9482732 0.01675,-1.5646292 -0.01176,-2.0436482 -0.777577,-0.0041 -1.744342,0.00276 -2.597747,0.1586531 C 13.600183,3.9721353 12.897155,4.2190548 12.213423,4.493825 11.643968,4.7226709 11.076241,4.9752994 10.5668,5.3175305 10.102026,5.6297577 9.668698,6.0000632 9.3031107,6.4241484 8.5670814,7.2779546 7.9825494,8.2626139 7.4743829,9.2688375 7.1313133,9.9481522 7.025906,10.73418 6.6616146,11.402354 c -0.4406024,0.80814 -0.8600281,1.729852 -1.6364739,2.224174 -0.5826589,0.370949 -1.3447053,0.336894 -2.0319202,0.406385 -0.8724086,0.08821 -1.8826192,-0.01439 -2.63055193,0.01093 z"
       id="path12"
       sodipodi:nodetypes="ccaaaaaaaaaccaaaaaaaacc" />
    <path
       id="path12-8-3"
       style="fill:#8b0089;fill-opacity:1;stroke:none;stroke-width:0.0355587px;stroke-linecap:butt;stroke-linejoin:miter;stroke-opacity:1"
       d="m 0.66068911,3.6803056 c -0.10251889,-1.009e-4 -0.20268994,2.691e-4 -0.29988702,7.95e-4 -0.0284928,0.479019 -0.0241442,1.0953775 -0.011736,2.0436475 0,0 0.80936501,0.00501 1.21142291,0.045354 0.5079839,0.050937 1.019203,0.1120702 1.5113798,0.2477298 0.7917357,0.218225 1.5933081,0.4721286 2.2922107,0.9034107 C 5.9735352,7.2973311 6.5199822,7.7931119 6.964564,8.3545605 7.03279,8.4407205 7.0964447,8.5300786 7.1566636,8.6218059 7.449044,7.9225857 7.7580672,7.2297713 8.089521,6.5535021 8.0534632,6.5101667 8.017362,6.4668833 7.9805538,6.4241846 7.6149668,6.0000993 7.1816101,5.6297895 6.7168346,5.3175623 6.207394,4.975333 5.6396915,4.7227271 5.0702349,4.4938812 4.386503,4.2191112 3.6834755,3.9722228 2.9585957,3.8397972 2.2118663,3.7033743 1.3783183,3.6810407 0.66069036,3.6803386 Z M 10.122056,10.069119 c -0.3731633,0.985383 -0.6016389,2.045756 -0.9361215,3.050745 0.2354123,0.438433 0.4987368,0.858727 0.8265285,1.228787 0.478952,0.540708 1.066989,1.01482 1.72633,1.309836 0.717561,0.321066 1.533321,0.366167 2.31485,0.45094 0.950479,0.103102 1.896329,0.07132 2.86733,0.06799 0.05219,-0.819856 0,-1.677133 0,-2.133515 -0.747933,-0.02533 -1.758163,0.07725 -2.630573,-0.01093 -0.687215,-0.06949 -1.449251,-0.03542 -2.031912,-0.406357 -0.776445,-0.494356 -1.195856,-1.416108 -1.636459,-2.224249 -0.227207,-0.416738 -0.353705,-0.879293 -0.499973,-1.333239 z" />
    <path
       style="fill:none;stroke:#000000;stroke-width:0.264583px;stroke-linecap:butt;stroke-linejoin:miter;stroke-opacity:1"
       d="M 104.9585,17.097312 Z"
       id="path917" />
    <path
       style="fill:#8b0000;fill-opacity:1;stroke:none;stroke-width:0.0355587px;stroke-linecap:butt;stroke-linejoin:miter;stroke-opacity:1"
       d="m 16.341354,2.7498229 c 0.0024,-0.1792286 0.01275,-0.31179 0.177052,-0.2065587 1.263208,0.8090505 1.886561,1.1994063 3.157398,2.0950958 0,0 0.172807,0.095375 0,0.2065588 -1.247685,0.8027638 -1.814112,1.1819976 -3.132459,1.9770629 -0.140112,0.084499 -0.19823,0.049304 -0.198781,-0.2054891 -0.0034,-1.6062742 0.0064,-2.4910554 -0.0032,-3.8666697 z"
       id="path919"
       sodipodi:nodetypes="cssssscc" />
    <path
       style="fill:#8b0089;fill-opacity:1;stroke:none;stroke-width:0.0355587px;stroke-linecap:butt;stroke-linejoin:miter;stroke-opacity:1"
       d="m 16.341354,13.192334 c 0.0024,-0.17923 0.01275,-0.31179 0.177052,-0.20656 1.263208,0.80905 1.886561,1.199408 3.157398,2.095097 0,0 0.172807,0.09538 0,0.206559 -1.247685,0.802763 -1.814112,1.181997 -3.132459,1.977063 -0.140112,0.08451 -0.19823,0.0493 -0.198781,-0.205489 -0.0034,-1.606274 0.0064,-2.491055 -0.0032,-3.86667 z"
       id="path919-0"
       sodipodi:nodetypes="cssssscc" />
  </g>
</svg>
